<?xml version="1.0" encoding="iso-8859-1"?>
<!-- Generator: Adobe Illustrator 19.0.0, SVG Export Plug-In . SVG Version: 6.00 Build 0)  -->
<svg version="1.1" id="Layer_1" xmlns="http://www.w3.org/2000/svg" xmlns:xlink="http://www.w3.org/1999/xlink" x="0px" y="0px"
	 viewBox="0 0 511.998 511.998" style="enable-background:new 0 0 511.998 511.998;" xml:space="preserve">
<g>
	<g>
		<path d="M503.545,426.276c-14.212,0-21.674,3.396-28.259,6.392c-5.748,2.616-10.711,4.873-21.258,4.873
			c-10.547,0-15.512-2.259-21.258-4.873c-6.585-2.996-14.047-6.392-28.259-6.392c-8.9,0-15.151,1.332-20.199,3.064
			c-13.657-20.136-31.814-37.05-52.932-49.187c-4.083-2.347-8.271-4.489-12.535-6.459c10.2-34.212,27.324-66.087,50.329-93.52
			c0.054,7.201-0.76,18.396-4.897,31.277c-1.427,4.443,1.017,9.202,5.462,10.628c0.858,0.276,1.728,0.407,2.586,0.407
			c3.572,0,6.891-2.284,8.043-5.867c3.625-11.287,5.075-21.468,5.538-29.516c5.431,7.229,10.572,17.009,12.704,29.603
			c0.698,4.123,4.274,7.04,8.321,7.04c0.469,0,0.944-0.039,1.422-0.119c4.601-0.78,7.699-5.141,6.919-9.741
			c-3.5-20.666-13.469-35.267-22.374-44.612c3.406,0,7.383,0.395,11.937,1.526c4.523,1.125,9.111-1.635,10.236-6.163
			c1.125-4.529-1.634-9.112-6.163-10.237c-13.915-3.456-24.515-1.912-31.084,0.069c-5.647-10.247-20.244-29.002-51.51-29.122
			c-0.011,0-0.023,0-0.033,0c-4.65,0-8.43,3.762-8.448,8.417c-0.018,4.666,3.75,8.464,8.418,8.482
			c14.968,0.057,24.547,5.919,30.409,11.845c-10.351,0.306-23.478,2.501-34.484,10.073c-3.844,2.645-4.816,7.905-2.172,11.75
			c1.638,2.382,4.281,3.661,6.969,3.661c1.65,0,3.318-0.482,4.781-1.489c6.985-4.805,15.606-6.542,23.002-6.999
			c-23.422,28.405-40.982,61.183-51.667,96.315c-8.97-3.032-18.212-5.248-27.601-6.654c2.195-30.158-0.804-60.086-8.94-89.199
			c6.766,2.704,14.409,6.996,19.132,13.569c1.65,2.297,4.24,3.519,6.868,3.518c1.709,0,3.433-0.516,4.924-1.588
			c3.789-2.723,4.654-8.003,1.93-11.793c-6.555-9.123-16.216-14.995-24.864-18.694c6.911-1.947,16.042-2.247,26.909,2.563
			c4.261,1.888,9.257-0.038,11.146-4.307c1.889-4.267-0.039-9.257-4.307-11.146c-25.879-11.456-45.184-2.262-54.551,4.403
			c-5.796-4.396-15.512-10.398-28.071-13.135c-4.566-0.995-9.061,1.898-10.055,6.456c-0.994,4.559,1.898,9.061,6.456,10.055
			c4.545,0.99,8.623,2.567,12.115,4.3c-7.913,3.24-17.289,8.511-25.975,17.049c-3.328,3.272-3.374,8.62-0.104,11.948
			c1.654,1.683,3.839,2.527,6.026,2.527c2.138,0,4.278-0.807,5.922-2.423c4.701-4.62,9.684-8.022,14.355-10.529
			c-1.17,2.466-2.303,5.099-3.336,7.878c-1.624,4.374,0.604,9.238,4.978,10.862c0.969,0.36,1.964,0.531,2.94,0.531
			c3.43,0,6.657-2.104,7.921-5.509c1.243-3.346,2.669-6.447,4.115-9.238c7.006,26.237,9.564,53.156,7.636,80.277
			c-2.311-0.1-4.625-0.169-6.943-0.169c-10.795,0-21.521,1.102-32.014,3.238c-13.488-38.665-37.552-79.547-64.686-109.908
			c8.029-0.737,18.021-0.361,26.176,4.007c1.27,0.68,2.635,1.003,3.981,1.003c3.016,0,5.934-1.618,7.456-4.461
			c2.204-4.113,0.655-9.234-3.459-11.438c-11.023-5.904-23.644-6.785-33.883-6.072c5.759-5.608,14.777-10.874,28.509-11.412
			c4.663-0.183,8.294-4.111,8.111-8.774c-0.178-4.55-3.923-8.118-8.437-8.118c-0.112,0-0.223,0.002-0.337,0.007
			c-30.243,1.185-44.266,19.279-49.923,29.905c-11.648-2.355-34.566-4.147-55.917,10.83c-3.82,2.68-4.744,7.949-2.064,11.769
			c2.679,3.82,7.948,4.745,11.769,2.065c11.138-7.814,22.945-9.589,32.054-9.361c-10.42,11.354-22.561,30.632-22.484,58.782
			c0.013,4.658,3.793,8.426,8.449,8.426c0.008,0,0.016,0,0.024,0c4.666-0.012,8.439-3.805,8.426-8.473
			c-0.048-17.651,5.821-30.917,12.287-40.183c0.742,8.036,2.551,18.184,6.584,29.366c1.243,3.443,4.488,5.586,7.949,5.586
			c0.952,0,1.92-0.162,2.866-0.504c4.389-1.583,6.665-6.425,5.083-10.814c-4.586-12.718-5.798-23.87-6-31.068
			c25.161,28.148,48.243,67.153,61.049,103.104c-10.848,3.434-21.333,8.004-31.235,13.696c-20.446,11.75-38.131,27.969-51.63,47.265
			c-3.633-0.7-7.854-1.142-12.956-1.142c-14.209,0-21.671,3.396-28.254,6.392c-5.748,2.616-10.71,4.874-21.255,4.874
			c-10.544,0-15.507-2.259-21.254-4.874c-6.584-2.996-14.045-6.392-28.254-6.392c-4.667,0-8.449,3.783-8.449,8.449
			c0,4.666,3.78,8.454,8.447,8.454c10.545,0,15.508,2.259,21.255,4.873c6.584,2.996,14.045,6.392,28.253,6.392
			c14.209,0,21.671-3.395,28.254-6.392c5.748-2.616,10.71-4.873,21.255-4.873c10.544,0,15.507,2.259,21.254,4.873
			c6.584,2.996,14.045,6.392,28.254,6.392c14.208,0,21.668-3.395,28.252-6.392c5.745-2.615,10.707-4.873,21.249-4.873
			c10.545,0,15.508,2.259,21.255,4.873c6.584,2.996,14.045,6.392,28.253,6.392c14.209,0,21.671-3.395,28.254-6.392
			c5.748-2.616,10.71-4.873,21.255-4.873c10.546,0,15.509,2.259,21.256,4.873c6.584,2.996,14.046,6.392,28.255,6.392
			s21.671-3.395,28.254-6.392c5.748-2.616,10.71-4.873,21.255-4.873c10.548,0,15.513,2.259,21.259,4.875
			c6.585,2.996,14.047,6.391,28.258,6.391s21.673-3.395,28.258-6.391c5.748-2.616,10.712-4.875,21.259-4.875
			c4.667,0,8.449-3.783,8.449-8.449C511.994,430.059,508.212,426.276,503.545,426.276z M355.005,437.54
			c-10.546,0-15.509-2.259-21.256-4.873c-6.584-2.996-14.046-6.392-28.255-6.392s-21.671,3.396-28.254,6.392
			c-5.748,2.616-10.71,4.873-21.255,4.873c-10.544,0-15.507-2.259-21.254-4.873c-6.584-2.996-14.045-6.392-28.254-6.392
			c-14.207,0-21.667,3.396-28.25,6.392c-5.747,2.615-10.708,4.873-21.252,4.873c-9.724,0-14.702-1.922-19.926-4.272
			c11.687-15.585,26.496-28.738,43.42-38.464c21.573-12.398,46.211-18.951,71.246-18.951c16.047,0,31.926,2.706,46.943,7.904
			c-0.827,3.465-1.596,6.948-2.291,10.449c-0.909,4.577,2.066,9.024,6.642,9.932c0.555,0.11,1.107,0.163,1.654,0.163
			c3.951,0,7.482-2.785,8.279-6.807c0.477-2.404,0.995-4.797,1.539-7.184c2.874,1.401,5.704,2.896,8.482,4.493
			c17.847,10.256,33.332,24.329,45.295,41.041C364.805,436.871,360.73,437.54,355.005,437.54z"/>
	</g>
</g>
<g>
	<g>
		<path d="M503.548,458.382c-14.212,0-21.674,3.395-28.259,6.392c-5.748,2.616-10.711,4.873-21.258,4.873
			c-10.547,0-15.512-2.259-21.258-4.873c-6.585-2.996-14.047-6.392-28.259-6.392c-14.209,0-21.671,3.395-28.254,6.392
			c-5.748,2.616-10.71,4.873-21.255,4.873c-10.546,0-15.509-2.259-21.256-4.873c-6.584-2.996-14.046-6.392-28.255-6.392
			c-14.209,0-21.671,3.395-28.254,6.392c-5.748,2.616-10.71,4.873-21.255,4.873c-10.544,0-15.507-2.259-21.254-4.873
			c-6.584-2.996-14.045-6.392-28.254-6.392c-14.207,0-21.667,3.395-28.25,6.392c-5.747,2.615-10.708,4.873-21.252,4.873
			c-10.545,0-15.508-2.259-21.255-4.873c-6.584-2.996-14.045-6.392-28.253-6.392c-14.209,0-21.671,3.395-28.254,6.392
			c-5.748,2.616-10.71,4.873-21.255,4.873c-10.544,0-15.507-2.259-21.254-4.873c-6.584-2.996-14.045-6.392-28.254-6.392
			c-4.667,0-8.449,3.783-8.449,8.449c0,4.666,3.782,8.449,8.449,8.449c10.545,0,15.508,2.259,21.255,4.874
			c6.584,2.996,14.045,6.392,28.253,6.392c14.209,0,21.671-3.396,28.254-6.392c5.748-2.616,10.71-4.874,21.255-4.874
			c10.544,0,15.507,2.259,21.254,4.874c6.584,2.996,14.045,6.392,28.254,6.392c14.208,0,21.668-3.396,28.252-6.392
			c5.745-2.615,10.707-4.874,21.249-4.874c10.545,0,15.508,2.259,21.255,4.874c6.584,2.996,14.045,6.392,28.253,6.392
			c14.209,0,21.671-3.396,28.254-6.392c5.748-2.616,10.71-4.874,21.255-4.874c10.546,0,15.509,2.259,21.256,4.874
			c6.584,2.996,14.046,6.392,28.255,6.392c14.209,0,21.671-3.396,28.254-6.392c5.748-2.616,10.71-4.874,21.255-4.874
			c10.548,0,15.513,2.259,21.259,4.875c6.585,2.996,14.047,6.391,28.258,6.391c14.211,0,21.673-3.396,28.258-6.391
			c5.748-2.616,10.712-4.875,21.259-4.875c4.667,0,8.449-3.783,8.449-8.449C511.998,462.165,508.215,458.382,503.548,458.382z"/>
	</g>
</g>
<g>
	<g>
		<path d="M130.468,25.452c-35.872,0-65.056,29.185-65.056,65.057s29.185,65.057,65.056,65.057
			c35.873,0,65.057-29.185,65.057-65.057S166.342,25.452,130.468,25.452z M130.468,138.668c-26.554,0-48.157-21.604-48.157-48.158
			c0-26.554,21.603-48.158,48.157-48.158s48.158,21.604,48.158,48.158C178.627,117.064,157.023,138.668,130.468,138.668z"/>
	</g>
</g>
<g>
	<g>
		<path d="M455.055,80.198H429.55c1.017-2.767,1.573-5.756,1.573-8.871c0-14.209-11.561-25.769-25.769-25.769h-84.34
			c-14.209,0-25.77,11.56-25.77,25.769s11.561,25.769,25.77,25.769h25.505c-1.017,2.767-1.573,5.756-1.573,8.871
			c0,14.209,11.561,25.769,25.769,25.769h84.34c14.209,0,25.77-11.56,25.77-25.769S469.265,80.198,455.055,80.198z M455.054,114.838
			h-84.34c-4.892,0-8.871-3.979-8.871-8.871s3.979-8.871,8.871-8.871c4.667,0,8.449-3.783,8.449-8.449
			c0-4.666-3.782-8.449-8.449-8.449h-49.701c-4.893,0-8.872-3.979-8.872-8.871s3.979-8.871,8.872-8.871h84.34
			c4.892,0,8.871,3.979,8.871,8.871s-3.979,8.871-8.871,8.871c-4.667,0-8.449,3.783-8.449,8.449c0,4.666,3.782,8.449,8.449,8.449
			h49.701c4.893,0,8.872,3.979,8.872,8.871S459.947,114.838,455.054,114.838z"/>
	</g>
</g>
<g>
</g>
<g>
</g>
<g>
</g>
<g>
</g>
<g>
</g>
<g>
</g>
<g>
</g>
<g>
</g>
<g>
</g>
<g>
</g>
<g>
</g>
<g>
</g>
<g>
</g>
<g>
</g>
<g>
</g>
</svg>
